<svg xmlns="http://www.w3.org/2000/svg" xmlns:xlink="http://www.w3.org/1999/xlink" version="1.1" x="0px" y="0px" viewBox="0 0 100 125" enable-background="new 0 0 100 100" xml:space="preserve"><path d="M46,29c4.963,0,9-4.037,9-9s-4.037-9-9-9s-9,4.037-9,9S41.037,29,46,29z M46,17c1.654,0,3,1.346,3,3  s-1.346,3-3,3s-3-1.346-3-3S44.346,17,46,17z"/><path d="M69.973,40.603c-0.218-1.642-1.734-2.785-3.371-2.577c-1.642,0.218-2.796,1.729-2.577,3.371l1.137,8.524  C61.128,49.588,55,47.945,55,41c0-4.963-4.037-9-9-9c-1.611,0-3.103,0.46-4.412,1.204C39.99,30.686,37.196,29,34,29  c-4.963,0-9,4.037-9,9v12c0,4.963,4.037,9,9,9h3.276c0.639,3.434,2.397,6.58,5.532,9.089l-2.43,7.291l-8.499,8.499  c-1.172,1.172-1.172,3.07,0,4.242c1.172,1.172,3.07,1.172,4.242,0l9-9c0.33-0.33,0.577-0.731,0.725-1.172l1.955-5.866l4.809,3.847  l5.706,11.411c0.747,1.494,2.556,2.076,4.025,1.342c1.482-0.741,2.083-2.543,1.342-4.025l-6-12c-0.195-0.388-0.47-0.729-0.81-1  l-10.496-8.396C44.23,61.543,43,58.982,43,56.233V56V41c0-1.654,1.346-3,3-3s3,1.346,3,3v18c0,1.657,1.343,3,3,3s3-1.343,3-3v-6.346  c2.83,1.959,6.545,3.115,10.964,3.275l4.063,30.469c0.216,1.62,1.702,2.794,3.371,2.577c1.642-0.218,2.796-1.729,2.577-3.371  L69.973,40.603z M31,50V38c0-1.654,1.346-3,3-3s3,1.346,3,3c0,6.675,0,8.328,0,15h-3C32.346,53,31,51.654,31,50z"/><text x="0" y="115" fill="#000000" font-size="5px" font-weight="bold" font-family="'Helvetica Neue', Helvetica, Arial-Unicode, Arial, Sans-serif">Created by Ayub Irawan</text><text x="0" y="120" fill="#000000" font-size="5px" font-weight="bold" font-family="'Helvetica Neue', Helvetica, Arial-Unicode, Arial, Sans-serif">from the Noun Project</text></svg>